<?xml version="1.0" standalone="no"?>
<!DOCTYPE svg PUBLIC "-//W3C//DTD SVG 20010904//EN"
 "http://www.w3.org/TR/2001/REC-SVG-20010904/DTD/svg10.dtd">
<svg version="1.0" xmlns="http://www.w3.org/2000/svg"
 width="1080.000000pt" height="1080.000000pt" viewBox="0 0 1080.000000 1080.000000"
 preserveAspectRatio="xMidYMid meet">
<metadata>
Created by potrace 1.14, written by Peter Selinger 2001-2017
</metadata>
<g transform="translate(0.000000,1080.000000) scale(0.100000,-0.100000)"
fill="#000000" stroke="none">
<path d="M0 8790 c0 -1594 3 -2014 12 -2026 39 -48 110 -114 158 -146 30 -20
71 -56 90 -79 19 -23 48 -54 65 -68 16 -14 68 -65 116 -113 92 -93 115 -106
106 -60 -7 40 -41 128 -57 147 -10 12 -14 43 -13 103 1 48 -3 89 -7 92 -4 3
-9 34 -11 70 -4 63 -3 65 21 67 43 5 124 -88 169 -193 35 -80 45 -96 73 -117
32 -24 46 -17 30 16 -26 51 -32 110 -14 150 9 20 26 40 37 43 12 3 26 14 33
25 11 17 9 19 -18 19 -16 0 -30 5 -30 10 0 6 -8 10 -17 10 -39 0 -42 15 -12
50 17 19 38 47 47 62 9 15 21 28 28 28 6 0 19 18 29 40 10 22 23 40 29 40 6 0
5 4 -3 9 -23 14 -5 38 33 45 83 16 133 54 92 69 -27 10 9 63 54 81 22 9 49 25
61 37 21 21 21 23 5 35 -13 9 -14 14 -5 20 7 4 15 2 17 -4 5 -16 35 -15 50 0
15 15 16 63 2 89 -8 14 -15 17 -27 10 -9 -5 -28 -5 -43 -1 -24 7 -29 4 -44
-27 -14 -30 -19 -33 -32 -22 -11 9 -14 27 -12 63 2 42 6 51 22 51 14 0 23 15
38 63 12 39 24 62 33 62 8 0 15 5 15 10 0 6 7 10 14 10 8 0 27 11 42 25 15 14
31 25 36 25 4 0 15 15 24 33 11 22 26 37 48 43 21 6 32 16 34 32 3 18 9 22 34
20 18 -1 33 3 36 10 2 6 13 12 23 12 11 0 17 4 14 10 -7 11 64 58 115 76 19 7
76 25 127 40 50 15 90 31 87 36 -7 11 54 68 73 68 9 0 21 7 28 16 6 9 30 18
54 20 24 2 49 11 55 19 6 9 18 17 26 19 8 2 22 6 30 9 42 16 99 18 510 23 245
2 451 7 459 9 10 4 11 8 2 19 -11 13 -59 20 -211 31 -25 1 -58 8 -75 15 -16 6
-91 14 -165 16 -139 5 -230 19 -230 35 0 5 7 12 15 15 8 4 15 12 15 19 0 34
60 52 200 60 47 2 99 7 115 10 26 4 239 5 320 1 17 -1 55 -13 85 -28 30 -14
70 -29 88 -33 18 -4 36 -13 39 -21 4 -10 16 -12 45 -8 23 4 43 3 47 -3 3 -5
24 -15 46 -20 22 -6 54 -17 70 -23 22 -9 37 -9 58 -1 32 12 28 31 -7 31 -13 0
-34 8 -47 19 -13 10 -53 31 -89 46 -36 16 -72 34 -80 40 -8 6 -27 16 -42 23
-16 6 -28 19 -28 27 0 40 17 43 311 49 242 5 288 4 313 -9 44 -23 136 -15 136
12 0 8 7 22 16 31 15 15 19 15 45 -1 32 -18 59 -13 59 9 0 8 9 14 20 14 11 0
20 -5 20 -11 0 -6 6 -9 13 -6 6 2 11 10 10 16 -2 7 17 10 60 7 52 -3 69 -9 92
-30 35 -32 61 -33 127 -1 28 14 62 25 75 25 13 0 23 5 23 10 0 6 7 10 15 10
23 0 18 29 -7 40 -13 5 -56 14 -95 20 -48 8 -73 16 -73 25 0 7 6 16 12 19 7 2
2 4 -12 3 -21 -2 -25 3 -31 38 -8 48 -1 54 60 48 25 -3 82 -5 125 -4 44 0 84
-3 90 -8 6 -5 63 -11 126 -15 162 -8 179 -11 193 -31 9 -11 30 -19 63 -21 28
-2 54 -10 60 -18 15 -22 232 -31 359 -16 85 10 109 17 160 47 47 29 70 36 104
35 52 -2 61 -12 61 -69 0 -59 -28 -272 -49 -378 -11 -49 -22 -124 -26 -165 -4
-41 -12 -84 -18 -95 -6 -11 -12 -29 -13 -40 0 -11 -1 -37 -2 -57 -2 -38 -24
-53 -35 -25 -3 6 -6 -2 -6 -19 -1 -16 4 -35 10 -41 20 -20 12 -206 -21 -433
-5 -36 -16 -119 -24 -185 -15 -120 -40 -220 -57 -231 -5 -3 -9 -30 -9 -60 0
-60 -22 -114 -46 -114 -8 0 -17 -7 -20 -15 -4 -8 -10 -13 -14 -10 -5 3 -11 1
-14 -4 -4 -5 -35 -19 -71 -31 -73 -24 -88 -50 -30 -50 40 0 40 -1 20 -40 -17
-32 -34 -37 -64 -18 -20 12 -51 5 -51 -12 0 -5 12 -11 28 -12 16 0 10 -3 -18
-7 -42 -6 -45 -4 -50 18 -7 36 -26 22 -22 -16 3 -32 -10 -44 -23 -23 -13 21
-27 9 -47 -40 -14 -35 -26 -50 -39 -50 -11 0 -19 -6 -20 -12 0 -7 -4 -3 -9 10
-10 25 -22 27 -49 10 -16 -10 -23 -7 -42 14 -20 22 -30 25 -61 21 -33 -4 -36
-8 -28 -23 6 -10 10 -28 10 -40 0 -19 -2 -20 -28 -6 -16 8 -42 32 -57 52 -16
21 -31 32 -33 26 -7 -23 -24 -12 -18 11 4 17 -2 33 -21 55 -30 37 -48 40 -65
12 -7 -11 -15 -20 -18 -20 -3 0 -15 29 -25 65 -11 36 -23 65 -27 65 -4 0 -13
-9 -20 -20 -17 -27 -31 -25 -65 10 -15 17 -31 30 -36 30 -18 0 -89 53 -97 73
-5 12 -28 43 -53 69 -34 36 -49 45 -66 41 -11 -3 -27 0 -34 6 -18 14 -27 4
-27 -30 0 -49 -59 -84 -61 -36 -1 16 -2 18 -6 5 -2 -10 -13 -18 -24 -18 -14 0
-19 -7 -19 -30 0 -22 -5 -30 -17 -30 -30 0 -42 14 -61 67 -15 41 -21 49 -34
42 -9 -5 -19 -25 -22 -44 -4 -19 -9 -35 -12 -35 -9 0 -30 24 -43 48 -6 12 -17
22 -24 22 -7 0 -38 -25 -70 -55 -63 -59 -112 -81 -159 -71 -31 6 -98 -24 -98
-44 0 -5 -17 -12 -37 -16 -21 -4 -40 -10 -43 -13 -3 -3 -14 -11 -25 -17 -11
-6 -20 -20 -20 -30 0 -24 -45 -31 -97 -13 -29 9 -43 9 -67 -1 -26 -10 -31 -18
-31 -48 0 -57 -21 -113 -47 -123 -27 -10 -53 -2 -53 16 0 17 -35 38 -90 54
-25 7 -52 17 -60 22 -8 5 -26 14 -40 21 -14 7 -33 19 -43 27 -15 13 -19 12
-38 -8 l-21 -22 -54 31 c-30 17 -68 30 -87 30 -32 0 -34 -2 -52 -62 -10 -35
-23 -66 -29 -70 -8 -5 -7 -16 0 -37 10 -26 9 -30 -7 -34 -12 -3 -19 0 -19 9 0
19 -29 18 -53 -3 -18 -17 -19 -17 -28 0 -10 17 -30 24 -28 10 5 -30 -3 -63
-15 -63 -7 0 -19 -6 -25 -14 -10 -11 -8 -16 5 -24 15 -8 16 -14 5 -41 -16 -37
-28 -41 -123 -45 -40 -1 -83 -8 -96 -15 -12 -6 -75 -16 -140 -22 -64 -5 -146
-14 -182 -19 -36 -5 -76 -7 -88 -3 -22 5 -31 -10 -13 -22 20 -12 126 -15 153
-4 16 6 35 8 45 3 10 -4 54 -8 99 -9 57 -1 87 -6 104 -18 14 -9 18 -17 11 -17
-11 0 -10 -5 4 -20 17 -19 17 -20 -11 -31 -22 -8 -40 -8 -74 0 -54 15 -56 17
-41 35 11 13 8 16 -13 22 -31 7 -55 -4 -35 -17 11 -7 10 -9 -3 -9 -10 0 -18
-4 -18 -10 0 -13 -46 -13 -71 0 -16 9 -24 5 -49 -21 -16 -18 -27 -36 -24 -41
8 -13 41 -9 47 5 3 9 16 12 36 9 17 -2 28 -8 26 -13 -4 -6 33 -6 54 0 2 0 -2
8 -9 16 -10 12 -10 18 0 30 19 23 40 18 40 -9 0 -15 7 -26 17 -29 11 -2 3 -7
-20 -12 -31 -6 -38 -11 -35 -29 2 -15 13 -23 43 -29 101 -20 131 -24 138 -20
4 2 7 -2 7 -11 0 -8 3 -21 6 -30 4 -10 -2 -17 -20 -22 -14 -3 -23 -11 -19 -17
3 -5 -1 -15 -9 -21 -8 -6 -17 -19 -21 -28 -8 -22 -27 -24 -27 -3 0 8 4 15 9
15 5 0 7 9 4 20 -3 12 -14 20 -25 20 -16 0 -19 -5 -14 -24 5 -20 0 -28 -32
-46 l-37 -23 28 -9 c17 -6 27 -16 25 -25 -3 -16 -66 -42 -85 -36 -6 2 -14 -1
-18 -8 -8 -12 36 -59 56 -59 7 0 4 -6 -7 -14 -12 -9 -23 -11 -30 -5 -6 5 -20
6 -29 2 -13 -4 -16 -3 -11 5 4 7 1 12 -8 12 -9 0 -16 4 -16 9 0 13 -53 -3 -58
-17 -2 -7 2 -12 8 -12 21 0 100 -63 100 -80 0 -9 -17 -25 -37 -36 -27 -14 -39
-29 -46 -54 -9 -38 -43 -80 -64 -80 -7 0 -13 -7 -13 -15 0 -8 5 -15 10 -15 20
0 9 -37 -20 -65 -28 -27 -31 -28 -48 -11 -21 18 -52 12 -52 -10 0 -8 9 -14 19
-14 11 0 23 -4 26 -10 10 -15 -52 -12 -67 4 -22 21 -90 7 -103 -22 -11 -25
-18 -27 -46 -11 -21 11 -95 19 -199 23 -36 1 -86 10 -112 20 -56 22 -78 16
-78 -19 0 -31 -18 -32 -45 -2 -17 20 -26 22 -55 17 -24 -5 -28 -8 -12 -9 14 0
22 -6 19 -13 -2 -7 3 -28 10 -47 13 -30 13 -33 -1 -28 -9 4 -16 2 -16 -2 0
-11 29 -23 40 -16 4 3 13 -2 20 -10 7 -8 9 -15 4 -15 -5 0 2 -6 16 -14 23 -12
28 -10 53 13 20 18 38 25 64 24 21 -1 39 -6 41 -12 2 -6 10 -11 17 -11 14 0
35 -29 35 -48 0 -5 -16 -9 -36 -10 -43 -2 -49 -6 -38 -24 16 -25 12 -38 -12
-38 -34 0 -33 -36 2 -44 24 -6 25 -8 10 -25 -9 -10 -16 -23 -16 -29 0 -15 -6
-15 -31 -2 -14 8 -19 7 -19 -2 0 -7 -5 -20 -10 -28 -8 -13 -11 -12 -24 5 -20
27 -37 9 -40 -42 -3 -48 -11 -63 -38 -63 -21 0 -21 0 2 -22 23 -22 23 -23 5
-27 -30 -5 -46 -22 -43 -45 3 -19 -2 -21 -64 -24 -38 -2 -68 -5 -68 -8 0 -3 5
-15 11 -26 11 -20 9 -21 -29 -14 -22 3 -47 9 -56 12 -30 11 -18 -37 19 -77 35
-39 46 -79 22 -79 -7 0 -18 9 -25 20 -17 27 -32 25 -32 -5 0 -22 4 -25 34 -25
21 0 36 -6 40 -15 3 -8 13 -15 23 -15 10 0 24 -4 32 -9 12 -8 13 -12 1 -26
-11 -13 -11 -20 1 -41 13 -24 11 -28 -18 -54 l-31 -28 39 -17 c21 -10 36 -22
33 -26 -3 -5 0 -9 5 -9 6 0 11 -7 11 -15 0 -8 11 -20 24 -27 23 -12 24 -14 7
-33 -9 -11 -30 -27 -46 -35 -34 -18 -40 -42 -12 -46 30 -4 32 -13 3 -23 -18
-7 -26 -18 -26 -34 0 -16 -9 -28 -27 -38 -16 -8 -31 -18 -34 -22 -3 -4 -32
-10 -65 -12 -64 -4 -124 -28 -124 -50 0 -9 17 -16 45 -21 29 -4 45 -11 45 -20
0 -8 7 -17 15 -20 19 -8 20 -24 1 -24 -8 0 -42 -16 -76 -35 -60 -34 -65 -35
-129 -28 -36 4 -70 6 -76 4 -5 -2 -19 -5 -29 -6 -31 -3 -30 -23 1 -28 15 -2
-1 -2 -37 1 -36 2 -83 8 -105 14 -22 5 -76 19 -120 29 -115 29 -145 33 -145
20 0 -6 8 -11 18 -11 24 0 105 -57 92 -65 -15 -9 -1 -27 16 -21 7 3 18 -4 24
-14 7 -13 21 -20 41 -20 16 0 56 -9 89 -20 32 -11 69 -19 82 -17 18 2 24 -4
26 -25 2 -20 9 -28 23 -28 11 0 22 -7 25 -15 4 -8 15 -15 25 -15 10 0 19 7 19
15 0 17 46 20 70 5 13 -9 13 -11 0 -20 -8 -5 -27 -10 -43 -10 -25 0 -26 -2
-15 -20 7 -11 25 -25 40 -31 22 -9 26 -15 18 -29 -6 -10 -10 -28 -10 -39 0
-12 -6 -21 -13 -21 -19 0 -47 -33 -47 -53 0 -23 32 -22 81 4 35 17 45 19 70 9
34 -15 38 -30 7 -30 -12 0 -29 -6 -37 -13 -19 -16 -158 -67 -182 -67 -14 0
-29 -19 -29 -36 0 -2 17 -4 39 -4 44 0 63 -16 54 -48 -8 -32 35 -30 62 4 14
18 28 25 44 22 l23 -3 -25 -25 c-14 -14 -48 -45 -76 -70 -56 -50 -63 -65 -27
-56 19 5 29 0 40 -16 23 -32 20 -48 -10 -48 -14 0 -23 -4 -19 -10 3 -5 -7 -16
-23 -24 -16 -8 -32 -22 -35 -31 -4 -8 -13 -15 -21 -15 -8 0 -18 -9 -21 -20 -4
-12 -18 -23 -34 -26 -32 -7 -57 -39 -39 -50 6 -4 16 0 23 9 7 10 21 17 31 17
10 0 32 7 48 15 24 13 31 13 38 3 4 -7 8 -16 8 -19 0 -13 -106 -109 -120 -109
-8 0 -28 -7 -44 -15 -15 -8 -36 -15 -45 -15 -9 0 -21 -4 -26 -9 -6 -5 -19 -11
-30 -14 -15 -4 -13 -5 8 -6 15 0 27 4 27 10 0 8 5 8 15 -1 8 -7 21 -10 28 -7
24 9 16 -33 -11 -60 -19 -20 -42 -29 -81 -34 -30 -4 -68 -15 -85 -23 -17 -8
-48 -18 -69 -21 -20 -3 -37 -10 -37 -15 0 -12 261 -2 276 11 34 28 41 -45 8
-79 -8 -7 -14 -17 -14 -21 0 -4 -11 -13 -25 -19 -14 -6 -25 -18 -25 -27 0 -8
-12 -22 -27 -32 -16 -9 -37 -24 -48 -34 -11 -9 -48 -31 -82 -49 -59 -30 -63
-34 -63 -66 0 -38 6 -40 53 -21 18 8 55 19 84 26 29 7 57 19 64 27 15 19 53
19 46 0 -3 -8 1 -17 10 -20 11 -4 14 -2 9 9 -4 10 1 15 15 15 18 0 20 -4 14
-22 -4 -13 -6 -33 -6 -46 1 -19 -3 -22 -18 -17 -17 5 -19 1 -18 -47 1 -29 -2
-65 -7 -81 -7 -25 -6 -27 19 -27 23 0 26 -3 22 -23 -4 -12 -9 -41 -13 -64 -4
-24 -11 -43 -16 -43 -14 0 -5 -32 15 -52 21 -22 37 -23 37 -3 0 13 46 33 55
23 10 -10 -9 -47 -26 -51 -10 -3 -19 -13 -19 -22 0 -27 79 -12 107 20 12 14
29 25 38 25 20 0 19 -6 -6 -41 -11 -16 -18 -33 -15 -38 4 -5 -2 -12 -11 -15
-10 -3 -6 -4 10 -2 37 4 42 -7 27 -73 -18 -83 -28 -100 -59 -99 -15 1 -42 -6
-61 -15 -19 -9 -52 -22 -72 -31 -20 -8 -47 -26 -59 -40 -13 -14 -32 -26 -43
-26 -12 0 -28 -5 -36 -10 -23 -15 23 -12 95 5 71 17 141 19 150 5 4 -6 10 -8
15 -5 5 3 20 -1 33 -10 13 -8 26 -12 30 -9 5 6 64 14 110 15 10 0 34 -16 53
-36 34 -36 43 -52 24 -40 -6 4 -10 -5 -8 -22 1 -15 -6 -43 -16 -61 -9 -18 -16
-38 -15 -45 4 -32 -2 -44 -23 -42 -13 1 -30 -8 -41 -22 -19 -24 -51 -31 -62
-13 -3 6 -17 10 -31 10 -17 0 -24 -6 -24 -19 0 -20 39 -31 111 -31 44 0 56
-20 28 -46 -30 -27 -24 -44 16 -44 41 0 65 31 44 56 -9 11 -9 18 -1 26 9 9 12
9 13 0 1 -7 2 -16 3 -22 0 -5 10 -16 21 -24 20 -16 20 -16 -1 -33 -12 -10 -24
-26 -28 -37 -5 -15 -3 -17 11 -11 45 18 53 18 53 -4 0 -38 39 -90 68 -91 6 0
12 9 12 20 0 11 5 20 10 20 6 0 10 9 10 20 0 11 12 27 26 37 15 9 33 32 41 50
7 19 18 31 23 28 18 -11 10 -50 -25 -115 -19 -36 -42 -80 -52 -97 -9 -18 -20
-33 -23 -33 -15 0 -70 -58 -70 -73 0 -10 -11 -19 -28 -23 -27 -7 -72 -42 -72
-57 0 -5 9 -5 20 -2 30 10 25 -19 -7 -43 -22 -17 -25 -23 -16 -33 7 -7 21 -14
32 -16 25 -4 126 69 125 90 -1 9 6 18 15 18 46 3 81 17 81 33 0 18 57 70 64
58 8 -13 -16 -61 -34 -67 -8 -3 -16 -17 -17 -31 0 -15 -5 -29 -10 -33 -4 -3
-17 -25 -28 -48 -11 -24 -25 -43 -31 -43 -17 0 -24 -38 -9 -44 7 -2 36 18 65
44 30 27 57 47 61 44 10 -6 -10 -64 -22 -64 -5 0 -9 -13 -9 -30 0 -16 5 -30
10 -30 6 0 10 6 10 13 0 8 9 22 20 32 11 10 20 24 20 30 0 28 26 35 60 18 31
-15 34 -15 47 3 7 10 11 24 9 31 -3 7 -2 13 3 13 31 0 33 -173 2 -197 -15 -11
-14 -12 2 -13 9 0 23 -11 29 -25 14 -32 48 -30 64 3 6 13 24 36 38 51 15 16
26 34 24 42 -2 8 7 15 20 17 20 3 22 -1 23 -45 1 -26 1 -63 0 -80 -2 -18 2
-33 7 -33 5 0 9 13 10 30 1 34 10 53 22 45 13 -8 40 6 40 21 0 25 18 15 23
-13 5 -28 -11 -76 -23 -68 -10 6 -28 -37 -24 -60 2 -11 -6 -34 -18 -52 -21
-35 -19 -63 6 -63 8 0 18 9 21 20 4 11 10 18 15 15 5 -3 15 3 22 15 7 11 18
20 24 20 7 0 10 15 8 39 -3 39 24 91 47 91 6 0 -1 -15 -15 -33 -31 -41 -31
-43 -6 -50 11 -3 21 -17 25 -33 3 -16 10 -43 15 -60 6 -17 10 -38 10 -47 0
-16 212 -17 3215 -17 1903 0 3222 4 3233 9 9 5 37 14 62 21 39 10 79 24 175
60 53 21 86 31 159 50 43 11 85 25 92 31 8 6 14 8 15 3 0 -5 4 1 10 14 5 13
14 20 20 16 7 -4 10 1 7 12 -4 20 -34 24 -75 10 -35 -11 -29 16 8 38 18 10 53
40 79 65 26 26 52 45 58 43 6 -2 16 6 22 17 6 11 22 33 36 48 14 16 33 36 41
46 9 9 25 17 35 17 15 0 18 5 13 19 -4 13 0 23 12 31 12 7 13 10 3 7 -8 -2
-20 3 -27 12 -9 13 -14 14 -24 4 -7 -7 -20 -13 -29 -13 -8 0 -21 -9 -28 -20
-8 -13 -23 -20 -43 -20 -23 0 -32 -5 -36 -20 -8 -31 -90 -82 -112 -71 -14 8
-25 3 -50 -20 -36 -32 -43 -34 -72 -18 -27 14 -80 2 -72 -17 3 -9 -2 -14 -17
-14 -16 0 -20 4 -16 15 5 14 -10 15 -123 9 -71 -4 -138 -3 -148 1 -10 4 -28 7
-40 6 -12 -1 -30 2 -41 8 -13 7 -30 6 -55 -3 -33 -11 -193 -13 -204 -2 -3 2 5
14 16 25 18 18 22 19 27 6 8 -20 24 -9 24 16 0 10 6 19 14 19 8 0 21 3 30 6
12 4 16 0 16 -15 0 -13 6 -21 16 -21 12 0 15 6 10 24 -3 14 -1 28 4 31 6 4 9
1 8 -7 -2 -10 19 -14 85 -18 56 -3 91 -10 96 -18 6 -10 10 -10 21 3 7 8 11 17
9 18 -16 11 -82 27 -110 27 -43 0 -69 14 -44 24 9 3 15 12 12 20 -3 7 0 19 6
25 8 8 4 11 -16 11 -19 0 -27 -5 -25 -14 4 -19 -1 -19 -73 -5 l-60 12 21 22
c12 13 35 25 51 29 23 4 29 11 29 31 0 38 -23 34 -155 -30 -31 -15 -59 -22
-72 -19 -13 4 -23 8 -23 9 0 13 70 68 107 85 25 11 51 27 58 36 10 14 34 22
128 41 16 3 37 -1 52 -11 19 -12 30 -14 44 -6 11 5 42 15 70 21 28 6 51 14 51
17 0 4 13 13 30 20 34 16 40 32 10 32 -24 0 -25 8 -5 35 9 11 28 19 45 20 39
0 34 20 -5 20 -65 1 -100 46 -41 53 22 3 25 6 16 17 -7 8 -9 19 -5 25 8 13 42
13 50 0 3 -5 10 -10 16 -10 12 0 12 67 -1 75 -15 9 -12 25 5 25 8 0 15 -5 15
-11 0 -8 4 -8 12 -2 7 5 31 10 53 12 22 1 50 9 62 17 12 8 38 14 58 14 24 0
35 4 35 15 0 8 7 15 15 15 8 0 19 9 25 20 6 11 19 20 29 20 11 0 21 6 24 14 3
7 29 19 59 25 29 7 73 17 96 23 l44 11 -4 44 c-3 41 -2 44 18 39 14 -4 24 0
28 10 3 8 14 14 23 13 10 -2 28 1 41 5 27 9 84 -2 76 -15 -3 -5 2 -9 11 -9 9
0 13 5 9 11 -4 7 7 10 34 8 23 -2 44 0 47 3 4 3 18 0 32 -7 14 -7 32 -11 39
-8 16 6 12 45 -4 51 -7 2 -12 10 -12 17 0 15 -76 55 -104 55 -25 0 -15 22 17
38 33 16 34 29 5 37 -40 12 -78 30 -78 37 0 4 7 11 16 16 11 6 29 2 58 -14 78
-44 109 -53 120 -35 3 5 -11 16 -32 24 -20 8 -46 24 -56 36 -19 21 -19 22 0
36 10 8 26 15 34 15 10 0 6 8 -13 25 -22 21 -30 24 -47 15 -22 -12 -60 -5 -60
11 0 5 -28 9 -61 9 l-62 0 26 20 c20 16 25 28 24 55 -1 25 -6 34 -15 30 -8 -3
-15 -5 -18 -5 -2 0 -1 -6 1 -12 4 -9 -17 -18 -60 -29 -71 -18 -148 -20 -154
-4 -4 12 55 47 86 51 12 1 37 14 56 28 19 14 39 26 45 26 7 0 17 9 24 20 7 11
21 20 30 20 10 0 18 4 18 9 0 5 21 23 48 40 26 17 60 41 76 53 42 34 91 48
185 57 64 7 88 13 98 27 7 10 13 14 13 8 0 -5 5 -1 11 9 6 9 14 15 20 12 5 -4
13 4 18 17 10 26 63 68 85 68 20 0 103 19 141 32 34 12 133 29 186 33 20 1 43
6 50 11 8 5 25 7 38 5 24 -3 91 27 91 41 0 8 -28 9 -195 7 -106 -1 -137 -5
-147 -23 -5 -9 -13 -14 -18 -11 -14 9 -1 33 22 38 20 6 20 7 5 31 -10 14 -17
37 -17 51 0 23 -4 25 -42 24 -49 0 -153 -21 -164 -32 -10 -10 -52 -9 -58 1 -9
15 -69 12 -81 -5 -9 -11 -21 -13 -59 -8 -31 5 -43 11 -35 16 7 4 17 5 22 2 4
-3 11 4 14 15 4 15 15 22 39 24 44 4 49 22 7 26 -18 2 -33 6 -33 10 0 8 114
83 150 99 40 18 105 33 139 33 26 0 31 4 31 24 0 14 -3 27 -7 29 -15 8 -188
-13 -240 -29 -28 -8 -57 -22 -64 -30 -10 -12 -14 -12 -25 5 -17 23 -9 48 17
56 19 6 19 7 -1 32 -32 42 -24 90 22 135 21 20 48 40 61 44 26 8 77 54 77 69
0 6 9 18 20 28 11 9 20 23 20 31 0 31 -23 26 -68 -13 -91 -81 -202 -142 -188
-104 3 8 6 19 6 24 0 12 110 132 130 141 8 4 11 7 5 7 -5 1 -3 6 5 11 8 5 25
7 37 3 17 -4 23 -1 23 11 0 13 7 15 39 10 22 -3 47 -1 57 5 16 9 14 11 -16 12
-19 1 -43 2 -52 1 -13 -1 -18 6 -18 24 0 21 -3 25 -17 19 -10 -4 -27 -10 -38
-13 -11 -3 -53 -29 -95 -59 -41 -29 -80 -53 -87 -53 -7 0 -17 8 -22 18 -8 16
-4 22 29 41 22 12 44 31 50 41 8 15 5 19 -15 24 -14 4 -25 10 -25 14 0 10 91
52 113 52 10 0 15 5 12 10 -3 6 1 10 10 10 9 0 19 -9 22 -20 7 -28 71 -28 102
1 l22 21 54 -27 c36 -17 62 -24 76 -20 20 7 20 8 -7 25 -16 10 -47 34 -68 54
-22 20 -49 36 -60 36 -12 0 -30 7 -40 15 -11 8 -32 15 -47 15 -35 0 -144 -27
-191 -47 -23 -10 -49 -13 -69 -9 -22 4 -38 1 -49 -9 -21 -19 -80 -31 -80 -16
0 6 8 19 19 30 22 22 37 87 21 93 -7 2 2 20 19 41 16 21 35 54 41 73 6 18 19
38 27 43 9 4 21 25 29 46 16 48 6 59 -61 62 -44 3 -53 0 -70 -23 -11 -14 -35
-40 -54 -58 -19 -17 -48 -44 -65 -60 -30 -29 -30 -30 -36 -7 -3 12 -9 22 -15
21 -19 -2 -16 29 3 39 11 6 25 24 32 41 7 16 18 30 24 30 6 0 34 19 61 43 28
24 72 54 98 67 27 12 44 25 39 29 -15 9 -19 25 -7 29 49 18 57 37 19 46 -34 9
-25 30 15 34 28 3 32 7 29 29 -2 22 2 28 26 34 15 4 36 15 45 23 9 8 29 18 45
22 27 7 28 8 11 20 -11 8 -13 14 -6 14 7 0 10 4 7 9 -3 5 1 11 9 15 8 3 15 9
15 14 0 11 -77 42 -103 42 -9 0 -17 3 -17 8 0 10 81 52 102 52 17 0 34 17 25
26 -10 11 -88 6 -102 -6 -12 -10 -46 -21 -102 -33 -7 -2 -21 -11 -32 -21 -20
-18 -21 -18 -57 3 l-37 22 -26 -31 c-28 -34 -106 -58 -125 -39 -6 5 -37 9 -69
9 -44 0 -65 -5 -85 -21 -20 -15 -34 -19 -63 -14 -30 5 -42 2 -58 -14 -25 -25
-47 -27 -55 -5 -5 12 -16 7 -58 -30 -28 -25 -55 -43 -60 -40 -4 3 -8 1 -8 -5
0 -5 -30 -11 -67 -14 -134 -9 -323 -79 -323 -119 0 -13 -26 -38 -39 -38 -6 0
-11 -9 -11 -20 0 -11 4 -20 9 -20 15 0 24 -41 12 -53 -7 -7 -14 -7 -24 2 -8 6
-39 16 -70 21 -30 6 -82 21 -114 34 -32 13 -82 29 -111 37 -48 12 -53 11 -65
-5 -13 -18 -15 -18 -41 -1 -15 10 -50 19 -79 21 -64 3 -104 11 -137 28 -14 8
-54 17 -89 20 -59 7 -66 5 -81 -14 -16 -21 -16 -21 -55 -3 -22 10 -56 28 -76
40 -30 19 -40 21 -65 11 -26 -9 -37 -7 -79 16 -28 14 -56 26 -63 26 -7 0 -29
10 -50 23 -57 35 -135 63 -140 49 -7 -23 -27 -12 -78 43 -36 38 -59 55 -77 55
-14 0 -27 7 -31 15 -6 17 -36 21 -36 5 0 -5 -6 -10 -13 -10 -8 0 -13 10 -13
22 1 15 -7 23 -26 29 -15 4 -35 14 -44 23 -8 9 -27 16 -41 16 -14 0 -42 14
-63 30 -21 17 -43 30 -48 30 -6 0 -24 12 -41 26 -20 17 -37 23 -50 19 -14 -4
-23 1 -32 17 -17 32 -30 38 -45 23 -17 -16 -54 -8 -54 12 0 8 -7 28 -16 44
-11 23 -18 28 -28 20 -20 -17 -36 8 -36 55 0 45 -10 59 -53 69 -35 9 -35 37
-1 78 47 56 174 85 379 88 164 2 181 5 164 25 -9 11 -7 14 10 14 11 0 21 -4
21 -9 0 -4 58 -11 129 -15 116 -6 134 -5 173 12 24 11 54 23 68 27 35 10 50
24 50 46 0 13 15 26 46 40 25 12 48 29 52 38 3 9 14 22 24 29 10 7 16 18 13
23 -4 5 5 9 19 9 32 0 42 16 19 29 -17 10 -17 10 0 11 25 0 87 30 109 52 13
13 34 18 81 18 34 0 73 6 86 13 34 17 64 108 52 153 -13 46 3 60 71 68 68 7
144 49 173 94 11 17 29 46 40 63 29 47 90 78 142 73 23 -2 45 0 48 6 3 5 13
10 21 10 11 0 13 -6 9 -21 -6 -18 -4 -20 13 -15 15 5 20 2 18 -11 0 -10 4 -18
11 -18 6 0 15 -4 20 -9 4 -5 3 -7 -2 -3 -14 7 -39 -49 -31 -69 5 -12 10 -14
20 -5 25 21 25 -1 1 -34 -14 -17 -25 -37 -25 -42 0 -6 -7 -16 -15 -23 -11 -9
-15 -33 -15 -87 0 -73 1 -76 46 -134 25 -32 48 -60 52 -61 4 0 20 -2 35 -3 41
-3 150 -37 167 -52 41 -35 78 -61 108 -72 17 -8 32 -20 32 -27 0 -8 12 -17 26
-20 18 -5 23 -11 19 -22 -4 -10 3 -23 17 -33 17 -14 20 -20 10 -31 -8 -11 -9
-17 -1 -25 16 -16 39 -4 39 19 0 16 5 19 25 15 27 -5 107 8 140 23 34 15 99
30 133 30 17 0 32 5 32 10 0 6 9 10 20 10 18 0 21 -6 19 -45 -2 -35 -6 -45
-20 -45 -25 0 -69 -21 -69 -33 0 -6 3 -7 7 -4 3 4 12 2 20 -5 10 -8 17 -8 25
0 7 7 32 12 57 12 26 0 66 6 91 14 25 8 61 19 80 24 l35 9 -35 15 -35 15 42
21 c23 12 51 22 62 22 11 0 26 6 33 13 24 24 52 35 107 42 30 4 64 13 75 20
19 12 78 23 129 24 22 1 22 19 0 43 -15 17 -15 18 6 18 30 0 61 17 61 34 0 20
35 47 52 41 12 -5 16 6 21 57 3 36 11 67 20 73 22 16 29 61 12 75 -12 10 -21
10 -41 1 -44 -20 -78 -14 -102 18 l-22 30 42 35 c23 20 37 36 32 37 -5 1 -31
3 -58 5 -27 3 -54 8 -60 13 -6 5 -22 12 -34 16 -45 13 -111 65 -105 81 3 8 -2
23 -11 33 -9 9 -18 31 -22 47 -5 26 -1 33 40 62 41 30 46 37 46 72 0 21 3 45
6 53 3 9 -8 23 -33 38 -21 13 -53 39 -72 58 -30 30 -32 35 -17 43 15 8 14 13
-14 41 -36 37 -37 45 -5 57 14 5 25 16 25 24 0 9 9 20 20 26 10 6 17 17 14 24
-3 9 3 17 15 21 33 10 25 30 -23 53 -24 12 -49 29 -56 37 -7 8 -19 15 -26 15
-8 0 -14 4 -14 10 0 5 22 12 50 16 52 7 83 27 57 37 -8 3 -35 9 -61 12 -25 4
-49 11 -52 16 -7 13 33 11 58 -2 14 -8 23 -8 31 0 8 8 8 11 -1 11 -7 0 -12 6
-12 13 0 7 -14 23 -30 36 l-31 22 22 37 c13 20 38 50 56 65 18 16 33 35 33 42
0 8 8 22 18 32 30 31 70 88 85 124 7 19 26 40 40 48 14 8 28 20 31 27 4 12
-12 13 -94 8 -86 -6 -107 -4 -170 16 -75 24 -101 22 -240 -14 -25 -7 -71 -10
-103 -8 -55 4 -60 6 -85 43 -15 21 -33 38 -39 39 -7 0 -13 9 -13 21 0 11 -11
35 -25 53 -14 18 -25 40 -25 49 0 10 -6 17 -14 17 -8 0 -26 15 -40 33 -42 52
-30 14 17 -54 67 -99 76 -113 87 -137 5 -13 10 -28 10 -33 0 -5 5 -9 10 -9 6
0 20 -20 31 -44 l22 -43 -27 -39 c-54 -80 -264 -208 -526 -321 -148 -64 -485
-179 -595 -203 -22 -5 -56 -13 -75 -18 -19 -6 -62 -18 -95 -27 -33 -9 -98 -23
-145 -30 -47 -7 -119 -22 -160 -33 -96 -26 -230 -48 -445 -73 -314 -36 -773
-2 -831 63 -15 16 -15 18 -1 18 13 0 15 10 13 51 -5 85 -30 87 -51 5 -18 -66
-35 -57 -35 18 0 66 0 66 35 80 27 12 35 21 35 40 0 15 3 26 8 26 4 0 8 26 9
57 2 42 -3 68 -20 102 -20 41 -22 60 -21 181 1 84 8 167 19 220 25 124 34 176
45 265 26 231 61 439 75 455 27 32 45 81 46 127 2 79 11 108 36 111 37 5 71
56 78 116 9 66 2 80 -36 72 -16 -3 -29 -4 -29 -3 0 1 4 17 10 36 7 26 5 50 -7
97 -16 58 -16 67 0 132 9 38 17 81 17 95 0 14 6 54 14 89 8 35 17 83 21 108 3
25 10 78 15 118 17 140 29 182 51 182 32 0 63 80 60 158 -1 35 -27 55 -42 31
-6 -10 -9 -3 -8 21 0 50 24 214 33 229 5 7 12 42 16 77 6 51 14 70 34 89 24
22 26 31 26 100 0 60 -3 75 -15 75 -8 0 -15 5 -15 10 0 6 7 10 15 10 27 0 46
54 39 112 -4 29 -10 62 -14 73 -7 19 0 90 20 206 6 30 10 73 10 95 1 21 7 60
13 87 20 72 77 101 82 40 2 -23 22 -60 46 -84 10 -10 19 -24 19 -30 0 -6 14
-28 30 -49 17 -21 30 -42 30 -48 0 -5 14 -15 30 -22 17 -7 30 -18 30 -26 0 -7
11 -39 25 -71 19 -43 34 -62 56 -72 39 -17 178 -214 179 -253 0 -10 3 -18 8
-18 4 0 20 -20 36 -45 15 -25 36 -50 46 -55 10 -5 21 -23 25 -40 4 -16 12 -33
18 -37 7 -5 19 -21 27 -38 18 -36 49 -69 73 -78 24 -9 23 23 -3 56 -11 14 -20
32 -20 41 0 26 30 18 41 -11 7 -17 13 -23 16 -15 4 10 8 10 18 2 8 -6 11 -18
8 -26 -3 -8 0 -15 6 -15 20 -3 26 -4 38 -12 6 -4 13 -3 15 3 2 6 39 13 83 16
99 6 112 10 120 35 8 26 -13 73 -39 85 -11 5 -22 15 -24 23 -8 25 70 3 99 -28
14 -16 30 -30 36 -32 6 -2 16 -51 23 -109 6 -58 18 -135 27 -172 13 -54 14
-70 4 -82 -11 -13 -10 -18 4 -32 9 -10 16 -30 15 -48 -3 -54 0 -66 15 -66 8 0
15 -9 15 -20 0 -11 5 -20 10 -20 6 0 10 8 10 19 0 10 8 21 18 24 19 4 32 44
32 94 0 13 7 26 15 29 8 4 15 15 15 25 0 11 7 22 16 26 8 3 13 11 11 17 -6 16
10 56 23 56 5 0 10 -11 10 -25 0 -14 -4 -25 -8 -25 -5 0 -6 -20 -2 -44 4 -25
3 -51 -1 -58 -4 -7 -6 -37 -5 -66 3 -63 28 -92 80 -92 26 0 40 -7 56 -27 96
-126 159 -200 177 -208 11 -6 27 -16 34 -22 18 -13 122 -31 224 -38 74 -5 94
-13 95 -40 1 -13 65 -45 90 -45 12 0 20 -7 20 -17 1 -17 1 -17 14 0 15 20 33
22 39 5 2 -7 3 -5 2 4 -2 10 1 21 6 24 5 3 9 -8 9 -25 0 -35 10 -44 43 -35 27
6 39 40 30 85 -4 21 -9 25 -26 21 -16 -4 -19 -2 -14 12 4 10 7 24 7 31 0 23
55 28 87 9 34 -22 92 -85 93 -101 0 -9 21 -13 71 -13 77 0 98 -12 99 -57 0
-18 -6 -23 -26 -23 -30 0 -53 -24 -54 -57 0 -12 -11 -35 -25 -51 -14 -17 -25
-35 -25 -41 0 -6 -7 -11 -15 -11 -8 0 -15 -9 -15 -19 0 -11 -4 -23 -10 -26
-12 -7 -14 -75 -2 -75 14 0 29 15 36 36 10 32 88 112 111 114 36 4 43 0 49
-26 5 -20 10 -24 19 -15 8 8 14 6 24 -11 12 -22 12 -22 13 -3 0 26 -27 65 -46
65 -27 0 -14 27 41 86 45 48 58 56 65 44 7 -10 12 -12 18 -4 12 19 109 25 126
9 17 -17 36 -20 36 -6 0 6 19 11 43 13 37 3 44 7 62 40 19 37 43 54 31 23 -3
-9 3 -32 14 -53 11 -20 20 -44 20 -54 0 -9 9 -26 21 -37 18 -17 35 -80 42
-158 1 -11 5 -19 10 -16 10 6 29 -47 23 -64 -8 -19 -26 -16 -27 5 0 10 -3 12
-6 5 -2 -7 6 -27 18 -45 15 -21 23 -46 23 -69 -1 -30 3 -39 23 -48 13 -6 29
-11 34 -11 17 0 35 -24 48 -63 12 -37 13 -37 66 -37 40 0 54 4 59 17 13 33 24
-3 16 -57 -5 -38 -4 -63 5 -80 7 -14 16 -40 20 -57 6 -31 5 -33 -22 -34 -15
-1 -43 -1 -60 0 -23 2 -33 -2 -33 -12 0 -8 -8 -18 -17 -21 -10 -3 -29 -13 -43
-21 -14 -8 -42 -15 -63 -15 -21 0 -50 -6 -66 -14 -15 -8 -56 -17 -92 -21 -87
-8 -156 -24 -205 -46 -23 -10 -89 -25 -145 -33 -57 -8 -129 -22 -159 -30 -94
-28 -174 -45 -310 -66 -41 -6 -82 -16 -92 -21 -9 -5 -41 -10 -71 -12 -63 -2
-65 -13 -11 -76 24 -27 30 -41 22 -45 -7 -3 -3 -3 9 0 14 3 23 1 23 -6 0 -6 5
-8 12 -4 8 5 6 11 -5 19 -29 21 -19 25 63 25 44 0 80 4 80 9 0 9 121 41 154
41 10 0 24 8 31 17 11 14 19 15 58 6 25 -5 52 -6 59 -2 7 5 30 9 51 9 21 0 48
6 60 14 12 7 46 17 76 20 29 4 64 14 78 23 22 15 35 15 110 4 75 -10 91 -10
144 6 32 10 59 21 59 25 0 14 28 8 34 -7 7 -19 46 -20 46 -1 0 17 43 24 135
21 72 -2 164 13 147 24 -6 4 22 7 61 7 79 1 134 7 144 18 19 18 73 -14 73 -44
0 -6 9 -10 20 -10 13 0 20 7 20 19 0 20 32 39 38 22 2 -6 24 -11 48 -11 26 0
43 4 39 10 -3 5 16 19 42 31 26 11 53 28 60 36 14 18 53 9 53 -13 0 -19 15
-18 35 2 15 15 81 19 226 12 15 0 42 11 62 26 42 32 91 30 119 -4 9 -11 23
-20 31 -20 19 0 35 -146 18 -163 -8 -8 -11 6 -11 51 0 63 -7 74 -30 47 -18
-22 -50 -19 -50 5 0 14 -7 20 -24 20 -13 0 -33 3 -43 6 -10 3 0 -5 22 -18 35
-21 40 -28 43 -66 2 -33 0 -42 -12 -42 -12 0 -16 -10 -16 -40 0 -39 1 -40 36
-40 20 0 43 -7 52 -17 16 -16 17 -16 20 0 4 18 32 24 32 7 0 -5 5 -10 10 -10
6 0 10 14 10 30 0 20 5 30 15 30 13 0 15 200 15 1740 l0 1740 -5400 0 -5400 0
0 -2010z m6252 1905 l-5 -26 -24 23 -25 23 24 6 c31 8 36 4 30 -26z m-341 -59
c0 -1 3 -22 5 -48 5 -43 3 -48 -15 -48 -11 0 -26 6 -33 13 -7 6 -22 12 -33 12
-16 0 -21 8 -23 37 l-3 37 50 -2 c28 0 51 -1 52 -1z m-131 -40 c0 -19 -26 -27
-57 -20 l-26 7 24 13 c32 17 59 17 59 0z m-690 -286 c0 -5 -2 -10 -4 -10 -3 0
-8 5 -11 10 -3 6 -1 10 4 10 6 0 11 -4 11 -10z m-50 -52 c0 -15 -12 -31 -33
-45 -37 -26 -67 -38 -67 -28 0 9 27 35 37 35 5 0 17 14 26 30 21 36 37 39 37
8z m-120 -105 c0 -26 -11 -37 -49 -56 -55 -28 -69 -2 -24 45 30 32 73 38 73
11z m-177 -122 c-18 -22 -43 -28 -43 -12 0 9 51 40 58 35 2 -1 -5 -12 -15 -23z
m2087 -581 c12 -8 11 -10 -7 -10 -13 0 -23 5 -23 10 0 13 11 13 30 0z m187
-46 c-3 -3 -12 -4 -19 -1 -8 3 -5 6 6 6 11 1 17 -2 13 -5z m503 -104 c0 -5 3
-9 8 -9 18 3 26 -2 14 -9 -7 -5 -26 -7 -42 -4 -37 5 -41 32 -5 32 14 0 25 -4
25 -10z m-3286 -26 c3 -9 4 -19 1 -24 -3 -4 2 -21 10 -36 22 -43 17 -94 -10
-94 -7 0 -24 -18 -39 -40 -19 -28 -31 -38 -43 -33 -12 5 -14 3 -8 -7 5 -8 4
-11 -3 -6 -8 5 -6 22 8 59 10 29 28 85 40 125 20 72 32 87 44 56z m1178 -96
c22 -30 23 -36 12 -68 -7 -19 -13 -45 -13 -57 -1 -40 -16 -25 -19 19 -1 23 -8
48 -14 55 -16 20 -46 15 -59 -9 -7 -13 -19 -29 -28 -36 -12 -10 -13 -15 -3
-18 19 -9 14 -24 -8 -24 -11 0 -20 -7 -20 -16 0 -8 -4 -12 -10 -9 -17 10 -13
105 4 105 8 0 18 10 21 21 10 32 56 68 86 69 19 0 34 -10 51 -32z m2115 -50
c-3 -8 -6 -5 -6 6 -1 11 2 17 5 13 3 -3 4 -12 1 -19z m-2157 -88 c-6 -4 -10
-11 -9 -16 3 -20 -2 -35 -10 -30 -5 4 -12 24 -16 47 -6 32 -3 44 12 58 17 17
18 17 26 -17 5 -23 4 -38 -3 -42z m-170 30 c0 -16 -5 -30 -11 -30 -6 0 -18 -9
-27 -20 -10 -11 -27 -22 -40 -25 -45 -8 -59 -34 -19 -36 24 -1 21 -3 -40 -24
-13 -4 -23 -13 -23 -20 0 -17 -46 -28 -67 -16 -10 5 -29 5 -47 0 -62 -18 -141
-6 -106 16 8 5 8 11 0 20 -12 14 14 25 64 25 19 0 38 10 55 28 31 32 64 52 88
52 26 0 92 34 93 48 0 7 15 12 40 12 38 0 40 -2 40 -30z m360 -68 c0 -4 -14
-23 -31 -41 -22 -25 -33 -31 -41 -23 -9 9 -6 17 8 33 10 12 18 24 16 27 -4 8
31 21 41 15 4 -2 7 -7 7 -11z m-1440 -46 c0 -7 -7 -19 -15 -26 -12 -10 -15 -9
-15 7 0 11 3 23 7 26 11 12 23 8 23 -7z m677 8 c-3 -3 -12 -4 -19 -1 -8 3 -5
6 6 6 11 1 17 -2 13 -5z m619 -14 c28 0 32 -16 5 -25 -22 -7 -73 14 -65 27 3
5 13 7 21 4 8 -3 26 -6 39 -6z m244 -8 c0 -4 -9 -13 -20 -20 -18 -11 -20 -10
-20 8 0 13 7 20 20 20 11 0 20 -3 20 -8z m-1004 -47 c-26 -19 -42 -19 -26 0 7
8 20 15 29 15 13 -1 13 -3 -3 -15z m144 5 c0 -5 -13 -10 -30 -10 -16 0 -30 5
-30 10 0 6 14 10 30 10 17 0 30 -4 30 -10z m-714 -96 c-6 -23 -36 -35 -36 -14
0 6 5 10 11 10 6 0 8 7 5 16 -4 9 -1 23 6 32 12 13 13 13 16 -2 2 -10 1 -28
-2 -42z m1339 46 c3 -5 26 -10 50 -10 53 0 98 -16 92 -33 -2 -7 -24 -12 -58
-13 -30 0 -64 -6 -76 -12 -12 -7 -32 -12 -44 -12 -18 0 -19 2 -9 15 10 12 10
15 -4 15 -23 0 -20 25 7 43 26 19 34 20 42 7z m-88 -96 c-29 -16 -57 -13 -57
6 0 5 19 10 43 10 l42 -1 -28 -15z m3393 -49 c0 -8 -4 -15 -9 -15 -15 0 -42
31 -35 41 8 13 44 -8 44 -26z m-3503 9 c-3 -3 -12 -4 -19 -1 -8 3 -5 6 6 6 11
1 17 -2 13 -5z m453 -20 c0 -8 -5 -12 -10 -9 -6 4 -8 11 -5 16 9 14 15 11 15
-7z m3051 -103 c-8 -5 -21 -7 -29 -3 -12 4 -12 7 4 19 12 9 21 10 28 3 8 -8 7
-13 -3 -19z m44 -21 c3 -11 3 -25 -1 -31 -10 -16 -35 18 -27 37 7 20 21 17 28
-6z m-3014 -653 c-13 -13 -15 1 -4 30 7 17 8 17 11 -1 2 -10 -1 -23 -7 -29z
m-4751 -487 c0 -5 -2 -10 -4 -10 -3 0 -8 5 -11 10 -3 6 -1 10 4 10 6 0 11 -4
11 -10z m-50 -135 c0 -16 -27 -32 -37 -22 -3 4 -3 13 0 22 8 20 37 20 37 0z
m-165 -45 c3 -5 -3 -10 -14 -10 -12 0 -21 5 -21 10 0 6 6 10 14 10 8 0 18 -4
21 -10z m-185 -115 c0 -8 -4 -15 -10 -15 -5 0 -10 7 -10 15 0 8 5 15 10 15 6
0 10 -7 10 -15z m-40 -60 c-8 -10 -17 -12 -23 -6 -6 6 -4 15 4 24 19 20 36 3
19 -18z m2005 -585 c3 -5 1 -10 -4 -10 -6 0 -11 5 -11 10 0 6 2 10 4 10 3 0 8
-4 11 -10z m-207 -388 c6 -18 -15 -14 -22 4 -4 10 -1 14 6 12 6 -2 14 -10 16
-16z m-305 -147 c-22 -17 -30 -11 -13 10 7 8 17 12 22 9 5 -3 1 -12 -9 -19z
m67 15 c0 -5 -4 -10 -10 -10 -5 0 -10 5 -10 10 0 6 5 10 10 10 6 0 10 -4 10
-10z m-70 -270 c0 -5 -9 -10 -20 -10 -12 0 -20 -6 -19 -12 3 -25 -13 -58 -28
-58 -8 0 -21 7 -30 16 -19 18 -8 32 42 58 35 18 55 20 55 6z m4957 -372 c-3
-8 -6 -5 -6 6 -1 11 2 17 5 13 3 -3 4 -12 1 -19z m1039 -5 c-10 -10 -19 5 -10
18 6 11 8 11 12 0 2 -7 1 -15 -2 -18z m-191 -53 c18 -19 17 -20 -2 -20 -12 0
-31 9 -44 20 l-24 19 26 1 c14 0 34 -9 44 -20z m-1026 -16 c-14 -17 -62 -19
-57 -2 5 13 48 28 61 21 4 -3 3 -11 -4 -19z m1141 7 c0 -6 -5 -13 -10 -16 -15
-9 -43 3 -35 15 8 13 45 13 45 1z m-6840 -81 c0 -5 -7 -10 -16 -10 -8 0 -12 5
-9 10 3 6 10 10 16 10 5 0 9 -4 9 -10z m-40 -18 c0 -5 -6 -17 -14 -27 -13 -18
-14 -18 -9 8 5 24 23 39 23 19z m249 -1 c8 -5 15 -22 16 -38 l2 -28 -71 3
c-87 5 -101 16 -50 38 21 9 46 20 54 25 20 10 32 11 49 0z m-139 -297 c0 -8
-4 -12 -10 -9 -5 3 -10 10 -10 16 0 5 5 9 10 9 6 0 10 -7 10 -16z m7483 -31
c-7 -2 -21 -2 -30 0 -10 3 -4 5 12 5 17 0 24 -2 18 -5z m-7753 -658 c0 -8 -7
-15 -15 -15 -16 0 -20 12 -8 23 11 12 23 8 23 -8z m8098 -34 c3 -8 -1 -12 -9
-9 -7 2 -15 10 -17 17 -3 8 1 12 9 9 7 -2 15 -10 17 -17z m-8263 -381 c3 -5 2
-10 -4 -10 -5 0 -13 5 -16 10 -3 6 -2 10 4 10 5 0 13 -4 16 -10z m-560 -141
c5 -5 -4 -9 -22 -9 -17 0 -36 7 -43 15 -11 13 -8 14 21 9 19 -4 38 -11 44 -15z
m8680 -44 c-49 -45 -57 -38 -15 15 22 28 36 38 43 31 6 -6 -3 -22 -28 -46z
m-80 -105 c-3 -5 -10 -10 -16 -10 -5 0 -9 5 -9 10 0 6 7 10 16 10 8 0 12 -4 9
-10z m178 -393 c2 -6 -13 -23 -33 -36 -21 -13 -43 -34 -49 -47 -11 -24 -41
-33 -41 -13 0 6 16 29 35 50 19 22 35 44 35 49 0 15 47 12 53 -3z m-8436 -123
c-3 -3 -12 -4 -19 -1 -8 3 -5 6 6 6 11 1 17 -2 13 -5z m8903 -528 c0 -2 -7 -6
-15 -10 -8 -3 -15 -1 -15 4 0 6 7 10 15 10 8 0 15 -2 15 -4z m-648 -188 c-9
-9 -15 -9 -24 0 -9 9 -7 12 12 12 19 0 21 -3 12 -12z m-8422 -362 c0 -2 -7 -9
-15 -16 -12 -10 -15 -10 -15 4 0 9 7 16 15 16 8 0 15 -2 15 -4z m168 -437
c-30 -20 -41 -9 -17 17 20 22 25 23 27 9 2 -10 -2 -21 -10 -26z m8333 -19 c6
0 7 -4 4 -10 -10 -16 -45 -12 -45 6 0 11 5 14 16 10 9 -3 20 -6 25 -6z m-557
-179 c3 -5 -1 -11 -9 -15 -15 -6 -29 7 -18 18 9 9 21 8 27 -3z m-330 -253 c-7
-12 -44 -10 -44 2 0 5 11 9 24 8 14 -1 22 -6 20 -10z m-6920 -334 c-10 -15
-20 -22 -22 -16 -2 6 5 23 14 38 10 15 20 22 22 16 2 -6 -5 -23 -14 -38z
m-233 -1 c-5 -10 -12 -26 -15 -36 -4 -11 -13 -17 -24 -15 -11 2 -26 -3 -35
-11 -35 -29 -15 4 25 41 44 41 64 49 49 21z m-101 -82 c0 -14 -25 -20 -52 -13
l-23 6 25 7 c36 10 50 10 50 0z m327 -17 c5 -17 -15 -37 -31 -31 -14 6 -14 10
-4 27 13 20 29 22 35 4z m303 -174 c0 -11 -4 -20 -9 -20 -5 0 -7 9 -4 20 3 11
7 20 9 20 2 0 4 -9 4 -20z m6185 -10 c-3 -5 -11 -10 -16 -10 -6 0 -7 5 -4 10
3 6 11 10 16 10 6 0 7 -4 4 -10z m930 0 c3 -5 -1 -10 -10 -10 -9 0 -13 5 -10
10 3 6 8 10 10 10 2 0 7 -4 10 -10z m-391 -39 c7 -11 -22 -23 -35 -15 -5 3 -7
10 -4 15 8 12 32 12 39 0z"/>
<path d="M6860 9275 c0 -9 6 -23 14 -31 16 -16 46 -19 46 -5 0 5 3 18 6 28 6
17 6 17 -8 -1 -15 -19 -55 -16 -43 3 3 5 1 12 -5 16 -5 3 -10 -1 -10 -10z"/>
<path d="M6936 9181 c-3 -4 1 -17 9 -27 14 -18 14 -18 15 9 0 26 -13 36 -24
18z"/>
<path d="M6031 9111 c-21 -29 -22 -38 -15 -128 9 -123 30 -166 77 -157 41 7
52 18 32 34 -12 10 -15 10 -15 -4 0 -23 -23 -20 -48 7 -20 21 -34 102 -14 83
8 -8 9 -13 11 -48 1 -19 3 -20 11 -8 8 12 10 12 10 1 0 -8 3 -11 6 -8 4 4 8
45 10 91 1 47 5 90 9 96 3 5 -1 13 -9 16 -21 8 -20 26 0 22 10 -2 19 3 21 10
3 7 -4 12 -15 12 -11 0 -27 3 -35 6 -9 3 -23 -6 -36 -25z m39 -35 c0 -3 -4 -8
-10 -11 -5 -3 -10 -1 -10 4 0 6 5 11 10 11 6 0 10 -2 10 -4z"/>
<path d="M7240 9050 c0 -5 5 -10 11 -10 5 0 7 5 4 10 -3 6 -8 10 -11 10 -2 0
-4 -4 -4 -10z"/>
<path d="M7020 9033 c0 -13 29 -38 35 -31 3 3 -4 13 -15 23 -11 10 -20 13 -20
8z"/>
<path d="M6147 8923 c-4 -3 -7 -11 -7 -17 0 -6 5 -5 12 2 6 6 9 14 7 17 -3 3
-9 2 -12 -2z"/>
<path d="M7100 8920 c0 -5 5 -10 10 -10 6 0 10 5 10 10 0 6 -4 10 -10 10 -5 0
-10 -4 -10 -10z"/>
<path d="M7108 8862 c-30 -18 -37 -49 -13 -58 8 -4 15 -13 15 -21 0 -7 16 -30
35 -50 19 -20 35 -44 35 -53 0 -23 31 -50 38 -32 2 7 10 19 18 26 21 21 17 42
-10 63 -34 27 -66 83 -66 116 0 31 -13 34 -52 9z"/>
<path d="M5943 8848 c-26 -33 -49 -158 -38 -207 20 -91 85 29 85 157 0 54 -2
62 -19 62 -10 0 -23 -6 -28 -12z"/>
<path d="M6049 8722 c-36 -38 -51 -82 -46 -138 4 -54 14 -61 57 -42 29 13 42
30 18 26 -7 -2 -20 12 -29 31 -14 27 -15 38 -6 59 l12 26 9 -27 c6 -16 17 -27
28 -27 16 0 16 3 -4 35 -20 35 -20 36 -2 51 11 9 14 13 7 10 -6 -4 -13 0 -15
8 -2 11 -10 8 -29 -12z"/>
<path d="M6192 8680 c0 -14 2 -19 5 -12 2 6 2 18 0 25 -3 6 -5 1 -5 -13z"/>
<path d="M7283 8634 c0 -13 3 -24 7 -24 5 0 22 -21 39 -47 51 -79 56 -85 68
-98 7 -7 10 -15 7 -18 -6 -6 27 -77 37 -77 4 0 10 -14 14 -31 4 -17 13 -33 20
-35 7 -3 11 -14 8 -25 -4 -12 5 -28 26 -48 17 -16 39 -47 49 -70 10 -22 30
-51 44 -64 14 -13 33 -36 43 -50 9 -15 21 -27 26 -27 9 0 -20 57 -71 139 -28
43 -34 63 -34 107 0 37 -4 54 -13 54 -7 0 -13 8 -13 19 0 10 -7 24 -15 31 -12
10 -16 9 -21 -4 -10 -27 -23 -18 -47 32 -12 26 -26 50 -30 53 -5 4 -10 29 -10
58 -1 39 -5 51 -17 51 -9 0 -22 9 -30 20 -8 11 -25 20 -37 20 -14 0 -23 6 -23
16 0 8 -6 22 -14 29 -11 12 -13 10 -13 -11z m234 -326 c-3 -7 -5 -2 -5 12 0
14 2 19 5 13 2 -7 2 -19 0 -25z"/>
<path d="M5500 8362 c0 -24 14 -42 32 -42 29 0 20 44 -9 48 -13 2 -23 -1 -23
-6z"/>
<path d="M8522 8313 c4 -22 48 -31 48 -10 0 14 -20 27 -42 27 -5 0 -8 -8 -6
-17z"/>
<path d="M7593 8293 c-14 -5 -18 -43 -5 -43 12 0 32 23 32 37 0 13 -6 15 -27
6z"/>
<path d="M8745 8170 c-3 -5 -1 -10 4 -10 6 0 11 5 11 10 0 6 -2 10 -4 10 -3 0
-8 -4 -11 -10z"/>
<path d="M5601 8144 c0 -11 3 -14 6 -6 3 7 2 16 -1 19 -3 4 -6 -2 -5 -13z"/>
<path d="M8440 8080 c0 -5 5 -10 10 -10 6 0 10 5 10 10 0 6 -4 10 -10 10 -5 0
-10 -4 -10 -10z"/>
<path d="M8944 8058 c-9 -28 1 -34 50 -30 36 3 46 8 46 22 0 26 -88 33 -96 8z"/>
<path d="M7700 7970 c0 -6 7 -13 15 -16 8 -4 15 -12 15 -19 0 -19 27 -38 35
-25 3 5 2 10 -2 10 -5 0 -17 14 -26 30 -18 30 -37 40 -37 20z"/>
<path d="M7325 7910 c-3 -5 1 -10 10 -10 9 0 13 5 10 10 -3 6 -8 10 -10 10 -2
0 -7 -4 -10 -10z"/>
<path d="M1495 7790 c-8 -13 20 -24 36 -15 8 6 7 10 -2 16 -18 11 -26 11 -34
-1z"/>
<path d="M5793 7763 c-13 -14 -23 -32 -23 -40 0 -7 -4 -13 -10 -13 -13 0 -13
-51 0 -85 8 -21 14 -25 31 -20 48 15 79 69 79 135 0 48 -1 50 -27 49 -17 0
-37 -11 -50 -26z"/>
<path d="M7774 7758 c4 -43 16 -78 26 -78 5 0 11 -9 15 -20 3 -11 19 -27 36
-37 16 -9 29 -22 29 -28 0 -5 11 -23 25 -39 30 -34 30 -34 9 -32 -9 0 -19 -5
-21 -11 -9 -25 37 -13 49 12 6 14 16 25 23 25 15 0 57 -88 46 -95 -5 -3 -11 1
-14 7 -2 7 -8 9 -13 5 -13 -12 -5 -81 11 -90 8 -4 15 -19 15 -32 0 -31 21 -84
27 -67 7 17 23 5 23 -19 0 -28 19 -23 31 9 8 19 8 36 -1 59 -8 24 -8 36 1 51
10 16 7 26 -20 65 -17 25 -31 52 -31 59 0 23 -24 68 -36 68 -6 0 -17 7 -24 15
-8 10 -9 15 -2 15 6 0 1 11 -11 24 -31 33 -55 66 -80 107 -20 35 -61 59 -100
59 -12 0 -15 -8 -13 -32z"/>
<path d="M1302 7440 c5 -17 56 -32 64 -18 8 13 3 17 -36 24 -25 5 -32 4 -28
-6z"/>
<path d="M1365 7390 c-8 -25 -72 -29 -81 -5 -9 22 -24 18 -24 -5 0 -11 5 -20
10 -20 6 0 10 -7 10 -15 0 -8 -7 -15 -15 -15 -8 0 -15 -4 -15 -10 0 -5 7 -10
15 -10 8 0 15 5 15 10 0 6 7 10 15 10 21 0 94 52 95 68 0 19 -18 14 -25 -8z"/>
<path d="M1200 7386 c0 -8 -6 -17 -12 -19 -7 -3 -3 -6 10 -6 16 -1 22 5 22 19
0 11 -4 20 -10 20 -5 0 -10 -6 -10 -14z"/>
<path d="M5760 7159 c0 -5 5 -7 10 -4 6 3 10 8 10 11 0 2 -4 4 -10 4 -5 0 -10
-5 -10 -11z"/>
<path d="M10792 7135 c0 -16 2 -22 5 -12 2 9 2 23 0 30 -3 6 -5 -1 -5 -18z"/>
<path d="M10706 7135 c-3 -8 -1 -15 4 -15 6 0 10 7 10 15 0 8 -2 15 -4 15 -2
0 -6 -7 -10 -15z"/>
<path d="M10730 7063 c-7 -21 -17 -43 -22 -50 -17 -22 2 -36 23 -17 39 35 50
-13 27 -107 -19 -73 -24 -79 -61 -79 -22 0 -28 -3 -19 -9 10 -6 7 -10 -12 -15
-14 -3 -26 -13 -26 -21 0 -8 -7 -15 -15 -15 -9 0 -27 -12 -40 -26 -14 -15 -25
-23 -25 -19 0 10 -73 -45 -84 -64 -17 -28 -72 -77 -82 -74 -11 4 -31 -30 -36
-62 -2 -12 -16 -24 -33 -30 -52 -18 -115 -65 -126 -93 -5 -15 -20 -35 -32 -44
-30 -23 -11 -44 30 -33 15 5 31 8 36 7 4 -1 7 5 7 13 0 10 10 15 26 15 26 0
82 39 147 103 17 16 43 33 58 39 16 5 35 22 42 36 7 17 26 31 47 38 19 6 40
20 45 31 13 26 41 53 54 53 5 0 16 12 23 27 7 15 22 30 33 33 11 3 35 14 53
25 l32 19 0 148 c0 122 -3 148 -14 148 -8 0 -16 12 -18 27 -5 40 -25 39 -38
-4z"/>
<path d="M5694 7014 c3 -9 6 -18 6 -20 0 -3 4 -3 10 1 11 7 2 35 -12 35 -6 0
-7 -7 -4 -16z"/>
<path d="M5718 6948 c9 -9 15 -9 24 0 9 9 7 12 -12 12 -19 0 -21 -3 -12 -12z"/>
<path d="M10645 6850 c-3 -5 1 -10 9 -10 9 0 16 5 16 10 0 6 -4 10 -9 10 -6 0
-13 -4 -16 -10z"/>
<path d="M5698 6792 c-4 -12 -2 -24 2 -27 13 -8 18 8 10 29 -6 19 -7 19 -12
-2z"/>
<path d="M5045 6640 c-3 -5 -1 -10 4 -10 6 0 11 5 11 10 0 6 -2 10 -4 10 -3 0
-8 -4 -11 -10z"/>
<path d="M5085 6640 c-3 -5 3 -10 15 -10 12 0 18 5 15 10 -3 6 -10 10 -15 10
-5 0 -12 -4 -15 -10z"/>
<path d="M556 6235 c4 -8 8 -15 10 -15 2 0 4 7 4 15 0 8 -4 15 -10 15 -5 0 -7
-7 -4 -15z"/>
<path d="M580 6204 l0 -25 -167 6 c-167 6 -319 19 -381 31 l-32 7 0 -72 c0
-69 1 -71 24 -71 14 0 27 4 30 9 8 12 77 10 94 -2 6 -5 12 -21 12 -35 0 -25 0
-25 21 -6 18 16 38 19 138 20 138 0 142 1 139 15 -2 6 3 14 10 16 6 3 12 -1
12 -8 0 -8 5 -5 13 5 13 17 18 18 68 6 30 -7 63 -16 74 -21 43 -18 85 -14 85
7 0 15 8 16 63 10 34 -4 133 -7 219 -7 143 0 225 3 388 16 32 2 77 -3 108 -12
71 -20 99 -13 100 26 1 40 -10 41 -273 40 -115 0 -313 1 -438 3 l-228 3 -25
33 c-31 39 -54 42 -54 6z"/>
<path d="M10770 6223 c-55 -19 -138 -64 -143 -77 -9 -22 33 -31 80 -16 88 27
93 30 93 66 0 34 -3 37 -30 27z"/>
<path d="M10125 6090 c-3 -5 3 -10 14 -10 12 0 21 5 21 10 0 6 -6 10 -14 10
-8 0 -18 -4 -21 -10z"/>
<path d="M10505 6070 c-3 -5 -17 -10 -30 -10 -13 0 -40 -13 -58 -30 -19 -16
-40 -30 -46 -30 -6 0 -11 -4 -11 -10 0 -5 -11 -12 -25 -16 -13 -3 -27 -14 -30
-24 -3 -10 -14 -21 -23 -23 -10 -3 -6 -5 10 -6 14 0 29 -7 32 -13 3 -7 3 -3 1
9 -5 17 0 22 24 28 17 4 39 4 50 0 11 -3 34 1 51 10 23 12 30 22 30 45 0 17 3
30 8 30 4 1 21 12 37 25 28 23 28 25 8 25 -12 0 -25 -4 -28 -10z"/>
<path d="M9957 6000 c-3 -13 -14 -20 -30 -20 -33 0 -43 -16 -19 -29 15 -8 23
-6 37 9 10 11 28 20 40 20 21 0 45 17 45 32 0 4 -15 8 -34 8 -25 0 -35 -5 -39
-20z"/>
<path d="M1721 5977 c-6 -6 -11 -15 -11 -19 0 -13 27 -9 39 6 15 18 -11 30
-28 13z"/>
<path d="M9836 5917 c-24 -6 -40 -17 -43 -28 -3 -11 -11 -19 -18 -19 -14 0
-27 -25 -18 -34 3 -3 19 6 35 19 16 14 35 25 42 25 13 0 52 38 45 43 -2 2 -21
-1 -43 -6z"/>
<path d="M10212 5880 c-12 -5 -25 -16 -28 -25 -4 -8 -13 -15 -22 -15 -8 0 -12
-3 -9 -6 4 -4 -10 -15 -31 -25 -20 -10 -53 -33 -72 -51 -29 -27 -32 -33 -17
-36 10 -2 38 9 63 25 26 15 56 34 68 40 11 7 20 19 18 27 -3 17 33 40 48 31 6
-3 10 1 10 9 0 12 10 16 40 16 22 0 40 5 40 10 0 12 -77 12 -108 0z"/>
<path d="M10778 5842 c-7 -9 -30 -30 -51 -46 -42 -31 -39 -52 6 -41 15 4 28
16 31 31 4 13 13 24 21 24 9 0 15 10 15 25 0 30 -4 31 -22 7z"/>
<path d="M1506 5833 c-3 -3 -3 -10 0 -14 7 -12 44 -12 44 0 0 10 -36 21 -44
14z"/>
<path d="M9664 5770 c-21 -16 -45 -30 -52 -30 -15 0 -72 -56 -72 -71 0 -6 6
-8 13 -5 6 3 20 9 30 12 9 4 17 12 17 19 0 8 10 17 23 20 25 8 64 42 78 68 13
23 9 22 -37 -13z"/>
<path d="M9850 5628 c-21 -19 -22 -23 -8 -26 23 -4 60 17 55 31 -6 19 -22 18
-47 -5z"/>
<path d="M9405 5574 c-9 -9 -14 -18 -11 -21 7 -7 46 16 46 27 0 15 -17 12 -35
-6z"/>
<path d="M1685 5430 c-3 -5 1 -10 9 -10 9 0 16 5 16 10 0 6 -4 10 -9 10 -6 0
-13 -4 -16 -10z"/>
<path d="M10730 5330 c-25 -16 -56 -30 -70 -30 -44 0 -100 -20 -100 -35 0 -14
5 -17 40 -19 28 -2 15 -30 -17 -40 -18 -5 -33 -13 -33 -17 0 -10 -61 -44 -72
-41 -4 1 -10 -8 -13 -21 -4 -13 -29 -36 -61 -56 -45 -28 -54 -38 -54 -62 0
-41 -52 -89 -97 -89 -30 0 -36 -5 -50 -37 -8 -21 -22 -46 -30 -55 -13 -14 -92
-56 -193 -102 -14 -6 -31 -19 -38 -28 -7 -10 -20 -18 -28 -18 -15 0 -96 -23
-146 -42 -15 -6 -37 -19 -49 -29 -13 -11 -30 -17 -38 -14 -9 3 -31 -5 -50 -16
-27 -16 -31 -23 -20 -30 21 -13 71 -11 88 5 16 14 107 49 169 66 19 4 44 18
56 29 12 12 34 21 47 21 14 0 36 11 49 25 13 14 29 25 35 25 16 0 93 38 100
50 3 5 14 10 23 10 9 0 40 17 67 38 28 20 79 51 115 68 36 17 74 41 84 53 11
11 24 21 31 21 6 0 22 11 35 25 17 18 34 25 62 25 25 0 45 7 58 20 12 12 32
25 45 30 14 5 25 16 25 23 0 17 74 52 89 43 8 -5 11 29 11 113 0 91 -3 121
-12 120 -7 0 -33 -13 -58 -29z"/>
<path d="M9980 5305 c-10 -12 -10 -19 -2 -27 9 -9 15 -7 26 7 23 32 0 49 -24
20z"/>
<path d="M1700 5300 c0 -5 5 -10 10 -10 6 0 10 5 10 10 0 6 -4 10 -10 10 -5 0
-10 -4 -10 -10z"/>
<path d="M10240 5295 c0 -8 5 -15 12 -15 7 0 24 -11 38 -25 24 -23 28 -24 40
-11 10 13 8 17 -12 25 -13 5 -30 16 -37 25 -17 20 -41 21 -41 1z"/>
<path d="M980 5280 c0 -14 48 -35 58 -26 8 9 -26 36 -45 36 -7 0 -13 -5 -13
-10z"/>
<path d="M1376 5231 c-12 -5 -16 -10 -9 -14 13 -8 43 2 43 14 0 10 -8 10 -34
0z"/>
<path d="M947 5083 c-4 -3 -7 -15 -7 -25 0 -19 -15 -24 -25 -8 -4 6 -11 8 -16
4 -5 -3 -7 -9 -4 -14 6 -9 -34 -19 -94 -23 -53 -4 -52 -27 1 -27 58 0 173 43
163 61 -3 4 -1 10 5 14 6 4 8 11 5 16 -7 11 -19 12 -28 2z"/>
<path d="M1060 4889 c0 -5 5 -7 10 -4 6 3 10 8 10 11 0 2 -4 4 -10 4 -5 0 -10
-5 -10 -11z"/>
<path d="M7614 4829 c-3 -6 -17 -8 -30 -5 -41 11 -244 -64 -244 -90 0 -14 47
-144 55 -152 3 -3 29 18 58 46 29 29 57 52 63 52 20 0 64 -52 64 -76 0 -12 8
-29 18 -36 10 -7 27 -26 38 -43 27 -43 32 -44 72 -25 21 9 55 20 76 23 22 4
44 13 48 22 5 8 15 15 22 15 23 0 96 106 96 140 0 24 -67 74 -133 98 -57 21
-72 24 -89 13 -16 -10 -25 -9 -54 8 -40 24 -50 25 -60 10z"/>
<path d="M475 4748 c-22 -13 -75 -69 -75 -80 0 -13 38 -9 91 8 49 16 71 46 54
73 -8 14 -45 13 -70 -1z"/>
<path d="M8280 4656 c0 -14 80 -40 91 -29 4 4 -14 15 -42 25 -34 11 -49 13
-49 4z"/>
<path d="M9237 4643 c-4 -3 -7 -12 -7 -19 0 -11 5 -11 25 -2 14 6 25 15 25 20
0 10 -34 11 -43 1z"/>
<path d="M10749 4562 c-25 -26 -67 -62 -94 -79 -59 -38 -92 -63 -108 -81 -7
-7 -20 -21 -29 -30 -10 -9 -18 -20 -18 -24 0 -15 29 -8 40 10 8 12 13 13 16 5
10 -23 164 13 164 39 0 4 6 8 13 8 7 0 25 6 40 13 26 12 27 14 27 100 0 48 -1
87 -3 87 -2 0 -23 -21 -48 -48z"/>
<path d="M8093 4593 c9 -2 23 -2 30 0 6 3 -1 5 -18 5 -16 0 -22 -2 -12 -5z"/>
<path d="M8148 4540 c12 -11 35 -20 51 -20 17 0 46 -9 65 -20 36 -19 36 -19
47 1 9 18 17 20 76 15 37 -3 78 -3 92 1 46 12 -82 34 -223 38 -129 4 -129 4
-108 -15z"/>
<path d="M7901 4527 c-22 -11 -41 -24 -41 -27 0 -3 18 -19 40 -36 22 -16 42
-36 45 -45 3 -9 22 -34 43 -56 40 -44 44 -78 11 -88 -22 -7 -26 -47 -6 -63 6
-5 32 -16 57 -23 25 -7 50 -16 56 -21 6 -4 34 -8 63 -9 28 -1 54 -6 57 -11 6
-9 44 29 44 43 0 5 -9 13 -20 19 -29 16 -46 51 -29 61 43 26 43 25 29 61 -8
18 -20 37 -29 42 -12 8 -12 10 0 20 15 11 39 59 39 76 0 6 -9 10 -19 10 -11 0
-21 5 -23 11 -2 6 -34 11 -73 13 -39 1 -75 5 -82 9 -6 4 -18 4 -27 1 -9 -3
-33 3 -55 14 l-38 20 -42 -21z"/>
<path d="M9443 4508 c-21 -7 -33 -17 -33 -28 0 -13 -12 -19 -47 -24 -64 -9
-83 -15 -83 -27 0 -15 104 -11 126 6 10 8 28 15 40 15 11 0 29 7 40 15 10 8
34 15 52 15 32 0 102 24 102 34 0 10 -164 4 -197 -6z"/>
<path d="M7361 4483 c-26 -36 -28 -37 -76 -74 -22 -17 -52 -54 -67 -82 -31
-58 -44 -65 -135 -66 -34 -1 -64 -5 -68 -10 -10 -17 161 -92 233 -102 37 -5
80 -14 95 -19 22 -7 36 -5 65 10 20 11 44 20 53 20 10 0 29 14 44 32 29 34 99
88 115 88 19 0 88 70 94 96 11 41 -9 55 -64 48 -67 -9 -187 32 -213 73 -14 23
-54 15 -76 -14z"/>
<path d="M9081 4481 c-7 -5 -12 -14 -10 -20 2 -6 10 -2 17 9 14 22 13 23 -7
11z"/>
<path d="M8857 4243 c-4 -3 -7 -14 -7 -24 0 -23 26 -15 41 12 8 15 6 19 -9 19
-10 0 -22 -3 -25 -7z"/>
<path d="M706 4161 c-3 -5 1 -11 9 -15 8 -3 15 -1 15 4 0 13 -18 22 -24 11z"/>
<path d="M8357 4153 c-12 -11 -8 -23 8 -23 8 0 15 7 15 15 0 16 -12 20 -23 8z"/>
<path d="M785 3969 c-51 -38 -54 -49 -16 -49 20 0 31 5 31 14 0 8 10 16 23 18
14 2 23 11 25 26 5 30 -15 28 -63 -9z"/>
<path d="M9527 3194 c3 -7 9 -14 14 -14 14 0 10 17 -5 23 -10 4 -13 1 -9 -9z"/>
<path d="M388 2928 c-21 -11 -38 -24 -38 -29 0 -4 -15 -11 -32 -14 -33 -6 -85
-41 -76 -50 3 -3 29 5 59 19 30 13 61 26 69 30 33 14 73 42 72 51 -1 16 -15
14 -54 -7z"/>
<path d="M193 2833 c-7 -2 -13 -11 -13 -20 0 -20 34 -12 38 10 3 17 -3 20 -25
10z"/>
<path d="M9665 2290 c-4 -6 -1 -10 4 -10 6 0 11 -7 11 -15 0 -9 9 -15 21 -15
14 0 19 5 17 16 -4 20 -45 38 -53 24z"/>
<path d="M9365 2140 c3 -5 11 -10 16 -10 6 0 7 5 4 10 -3 6 -11 10 -16 10 -6
0 -7 -4 -4 -10z"/>
<path d="M9326 2072 c-3 -6 -14 -8 -24 -5 -23 6 -55 -29 -46 -51 4 -10 18 -16
39 -16 27 0 35 5 45 31 9 21 10 33 3 40 -7 7 -13 7 -17 1z"/>
<path d="M8845 1849 c-10 -15 3 -25 16 -12 7 7 7 13 1 17 -6 3 -14 1 -17 -5z"/>
<path d="M8960 1764 c0 -17 22 -14 28 4 2 7 -3 12 -12 12 -9 0 -16 -7 -16 -16z"/>
<path d="M9035 1549 c-4 -6 0 -18 9 -27 15 -15 16 -15 16 5 0 25 -15 38 -25
22z"/>
<path d="M60 1290 l-25 -7 27 -8 c32 -8 62 0 53 15 -7 11 -19 11 -55 0z"/>
<path d="M8425 1150 c3 -5 12 -10 20 -10 8 0 17 5 20 10 4 6 -5 10 -20 10 -15
0 -24 -4 -20 -10z"/>
<path d="M566 1121 c-3 -5 0 -11 8 -14 15 -6 26 1 26 15 0 11 -27 10 -34 -1z"/>
<path d="M8407 665 c-18 -17 -47 -20 -47 -5 0 15 -47 12 -79 -4 -16 -9 -44
-13 -67 -11 -30 4 -35 2 -22 -6 10 -5 24 -9 30 -7 7 1 35 -2 61 -6 36 -5 60
-3 95 10 55 20 68 29 54 38 -6 3 -17 -1 -25 -9z"/>
<path d="M8775 579 c-11 -17 -2 -18 19 -3 17 12 17 14 4 14 -9 0 -20 -5 -23
-11z"/>
<path d="M7859 569 c-10 -6 -7 -9 14 -9 29 0 35 5 14 13 -8 3 -20 1 -28 -4z"/>
<path d="M8730 566 c0 -2 7 -7 16 -10 8 -3 12 -2 9 4 -6 10 -25 14 -25 6z"/>
<path d="M515 509 c-33 -11 -65 -26 -71 -34 -6 -8 -35 -27 -64 -42 -30 -15
-56 -34 -58 -40 -6 -21 47 -15 75 7 19 14 41 20 81 20 58 0 81 15 82 53 0 11
10 27 23 38 29 24 10 24 -68 -2z"/>
<path d="M857 281 c-27 -32 -35 -61 -18 -61 5 0 13 10 17 22 4 13 14 28 22 34
8 6 13 17 10 24 -2 8 -13 1 -31 -19z"/>
<path d="M1246 302 c-2 -4 -1 -14 3 -21 6 -10 10 -9 14 3 6 16 -8 32 -17 18z"/>
<path d="M790 149 c0 -5 5 -7 10 -4 6 3 10 8 10 11 0 2 -4 4 -10 4 -5 0 -10
-5 -10 -11z"/>
<path d="M765 125 c-5 -11 -15 -28 -23 -37 -8 -10 -10 -18 -5 -18 15 0 45 49
40 63 -3 7 -8 4 -12 -8z"/>
<path d="M1374 24 c3 -9 6 -18 6 -20 0 -2 5 -4 10 -4 6 0 10 9 10 20 0 12 -7
20 -16 20 -11 0 -14 -5 -10 -16z"/>
</g>
</svg>
